<?xml version="1.0" encoding="UTF-8"?>
<svg xmlns="http://www.w3.org/2000/svg" width="1200" height="520" viewBox="0 0 1200 520" role="img" aria-label="实验19：酸碱中和">
  <defs>
    <linearGradient id="bg" x1="0" y1="0" x2="1" y2="1">
      <stop offset="0" stop-color="#1e293b"/>
      <stop offset="1" stop-color="#0f172a"/>
    </linearGradient>
    <linearGradient id="accent" x1="0" y1="0" x2="1" y2="1">
      <stop offset="0" stop-color="#fda4af" stop-opacity="0.9"/>
      <stop offset="1" stop-color="#f39c12" stop-opacity="0.65"/>
    </linearGradient>
    <filter id="shadow" x="-20%" y="-20%" width="140%" height="140%">
      <feDropShadow dx="0" dy="10" stdDeviation="10" flood-color="#000000" flood-opacity="0.35"/>
    </filter>
  </defs>
  <rect x="16" y="16" width="1168" height="488" rx="30" fill="url(#bg)" stroke="#334155" stroke-width="2"/>
  <rect x="40" y="40" width="250" height="54" rx="16" fill="url(#accent)" opacity="0.18" stroke="#334155"/>
  <text x="62" y="76" fill="#f8fafc" font-family="system-ui, -apple-system, Segoe UI, Arial" font-size="20" font-weight="700">实验19：酸碱中和</text>

  
  <path d="M120 135 C 240 55, 360 70, 460 150" fill="none" stroke="#334155" stroke-width="3" opacity="0.55"/>
  <path d="M720 150 C 830 70, 980 80, 1090 160" fill="none" stroke="#334155" stroke-width="3" opacity="0.55"/>

  <g filter="url(#shadow)">
    <rect x="520" y="110" width="40" height="330" rx="20" fill="#0b1220" stroke="#94a3b8" stroke-width="3"/>
    <rect x="528" y="160" width="24" height="200" rx="12" fill="#fda4af" opacity="0.16"/>
    <path d="M540 440 C 540 470, 520 480, 495 480" fill="none" stroke="#94a3b8" stroke-width="6" stroke-linecap="round"/>
    <path d="M495 480 C 470 480, 450 470, 450 440" fill="none" stroke="#94a3b8" stroke-width="6" stroke-linecap="round"/>
    <path d="M450 440 C 450 415, 470 395, 495 395" fill="none" stroke="#94a3b8" stroke-width="6" stroke-linecap="round"/>
    <path d="M520 440 C 520 410, 550 390, 580 390 C 610 390, 640 410, 640 440"
          fill="#0b1220" stroke="#94a3b8" stroke-width="3"/>
    <path d="M560 420 h60 v40 a14 14 0 0 1 -14 14 h-32 a14 14 0 0 1 -14 -14 z" fill="#fda4af" opacity="0.18"/>
  </g>
</svg>
