<?xml version="1.0" encoding="UTF-8"?>
<svg xmlns="http://www.w3.org/2000/svg" width="1200" height="520" viewBox="0 0 1200 520" role="img" aria-label="实验5：电解水">
  <defs>
    <linearGradient id="bg" x1="0" y1="0" x2="1" y2="1">
      <stop offset="0" stop-color="#1e293b"/>
      <stop offset="1" stop-color="#0f172a"/>
    </linearGradient>
    <linearGradient id="accent" x1="0" y1="0" x2="1" y2="1">
      <stop offset="0" stop-color="#38bdf8" stop-opacity="0.9"/>
      <stop offset="1" stop-color="#f39c12" stop-opacity="0.65"/>
    </linearGradient>
    <filter id="shadow" x="-20%" y="-20%" width="140%" height="140%">
      <feDropShadow dx="0" dy="10" stdDeviation="10" flood-color="#000000" flood-opacity="0.35"/>
    </filter>
  </defs>
  <rect x="16" y="16" width="1168" height="488" rx="30" fill="url(#bg)" stroke="#334155" stroke-width="2"/>
  <rect x="40" y="40" width="250" height="54" rx="16" fill="url(#accent)" opacity="0.18" stroke="#334155"/>
  <text x="62" y="76" fill="#f8fafc" font-family="system-ui, -apple-system, Segoe UI, Arial" font-size="20" font-weight="700">实验5：电解水</text>

  
  <path d="M120 135 C 240 55, 360 70, 460 150" fill="none" stroke="#334155" stroke-width="3" opacity="0.55"/>
  <path d="M720 150 C 830 70, 980 80, 1090 160" fill="none" stroke="#334155" stroke-width="3" opacity="0.55"/>

  <g filter="url(#shadow)">
    <rect x="300" y="170" width="600" height="280" rx="26" fill="#0b1220" stroke="#334155" stroke-width="3"/>
    <path d="M330 290 h540 v140 a20 20 0 0 1 -20 20 h-500 a20 20 0 0 1 -20 -20 z" fill="#0ea5e9" opacity="0.20"/>
    <rect x="420" y="210" width="20" height="210" rx="10" fill="#94a3b8"/>
    <rect x="760" y="210" width="20" height="210" rx="10" fill="#94a3b8"/>
    <path d="M430 190 C 430 160, 470 150, 500 160" fill="none" stroke="#38bdf8" stroke-width="5" opacity="0.7"/>
    <path d="M770 190 C 770 160, 730 150, 700 160" fill="none" stroke="#38bdf8" stroke-width="5" opacity="0.7"/>
    <circle cx="430" cy="305" r="7" fill="#f8fafc" opacity="0.45"/>
    <circle cx="430" cy="340" r="5" fill="#f8fafc" opacity="0.35"/>
    <circle cx="770" cy="295" r="8" fill="#f8fafc" opacity="0.50"/>
    <circle cx="770" cy="335" r="5" fill="#f8fafc" opacity="0.35"/>
  </g>
</svg>
