<?xml version="1.0" encoding="UTF-8"?>
<svg xmlns="http://www.w3.org/2000/svg" width="1200" height="520" viewBox="0 0 1200 520" role="img" aria-label="实验15：铁生锈条件">
  <defs>
    <linearGradient id="bg" x1="0" y1="0" x2="1" y2="1">
      <stop offset="0" stop-color="#1e293b"/>
      <stop offset="1" stop-color="#0f172a"/>
    </linearGradient>
    <linearGradient id="accent" x1="0" y1="0" x2="1" y2="1">
      <stop offset="0" stop-color="#fca5a5" stop-opacity="0.9"/>
      <stop offset="1" stop-color="#f39c12" stop-opacity="0.65"/>
    </linearGradient>
    <filter id="shadow" x="-20%" y="-20%" width="140%" height="140%">
      <feDropShadow dx="0" dy="10" stdDeviation="10" flood-color="#000000" flood-opacity="0.35"/>
    </filter>
  </defs>
  <rect x="16" y="16" width="1168" height="488" rx="30" fill="url(#bg)" stroke="#334155" stroke-width="2"/>
  <rect x="40" y="40" width="250" height="54" rx="16" fill="url(#accent)" opacity="0.18" stroke="#334155"/>
  <text x="62" y="76" fill="#f8fafc" font-family="system-ui, -apple-system, Segoe UI, Arial" font-size="20" font-weight="700">实验15：铁生锈条件</text>

  
  <path d="M120 135 C 240 55, 360 70, 460 150" fill="none" stroke="#334155" stroke-width="3" opacity="0.55"/>
  <path d="M720 150 C 830 70, 980 80, 1090 160" fill="none" stroke="#334155" stroke-width="3" opacity="0.55"/>

  <g filter="url(#shadow)">
    <path d="M320 150 h180 v300 a90 90 0 0 1 -180 0 z" fill="#0b1220" stroke="#94a3b8" stroke-width="3"/>
    <path d="M700 150 h180 v300 a90 90 0 0 1 -180 0 z" fill="#0b1220" stroke="#94a3b8" stroke-width="3"/>
    <path d="M332 320 h156 v110 a78 78 0 0 1 -156 0 z" fill="#0ea5e9" opacity="0.12"/>
    <path d="M712 320 h156 v110 a78 78 0 0 1 -156 0 z" fill="#0ea5e9" opacity="0.22"/>
    <rect x="400" y="210" width="20" height="230" rx="10" fill="#fca5a5" opacity="0.55"/>
    <rect x="780" y="210" width="20" height="230" rx="10" fill="#fca5a5" opacity="0.75"/>
  </g>
</svg>
