<?xml version="1.0" encoding="UTF-8"?>
<svg xmlns="http://www.w3.org/2000/svg" width="1200" height="520" viewBox="0 0 1200 520" role="img" aria-label="实验8：蒸馏操作">
  <defs>
    <linearGradient id="bg" x1="0" y1="0" x2="1" y2="1">
      <stop offset="0" stop-color="#1e293b"/>
      <stop offset="1" stop-color="#0f172a"/>
    </linearGradient>
    <linearGradient id="accent" x1="0" y1="0" x2="1" y2="1">
      <stop offset="0" stop-color="#fbbf24" stop-opacity="0.9"/>
      <stop offset="1" stop-color="#f39c12" stop-opacity="0.65"/>
    </linearGradient>
    <filter id="shadow" x="-20%" y="-20%" width="140%" height="140%">
      <feDropShadow dx="0" dy="10" stdDeviation="10" flood-color="#000000" flood-opacity="0.35"/>
    </filter>
  </defs>
  <rect x="16" y="16" width="1168" height="488" rx="30" fill="url(#bg)" stroke="#334155" stroke-width="2"/>
  <rect x="40" y="40" width="250" height="54" rx="16" fill="url(#accent)" opacity="0.18" stroke="#334155"/>
  <text x="62" y="76" fill="#f8fafc" font-family="system-ui, -apple-system, Segoe UI, Arial" font-size="20" font-weight="700">实验8：蒸馏操作</text>

  
  <path d="M120 135 C 240 55, 360 70, 460 150" fill="none" stroke="#334155" stroke-width="3" opacity="0.55"/>
  <path d="M720 150 C 830 70, 980 80, 1090 160" fill="none" stroke="#334155" stroke-width="3" opacity="0.55"/>

  <g filter="url(#shadow)">
    <path d="M260 300 C 280 220, 350 180, 420 180 C 490 180, 560 220, 580 300"
          fill="#0b1220" stroke="#94a3b8" stroke-width="3"/>
    <path d="M325 180 L 325 130 L 515 130 L 515 180" fill="none" stroke="#94a3b8" stroke-width="6" stroke-linecap="round"/>
    <path d="M515 140 C 610 140, 660 175, 720 215" fill="none" stroke="#94a3b8" stroke-width="6" stroke-linecap="round"/>
    <rect x="720" y="190" width="280" height="70" rx="18" fill="#0b1220" stroke="#334155" stroke-width="3"/>
    <path d="M740 225 C 780 200, 820 250, 860 225 C 900 200, 940 250, 980 225"
          fill="none" stroke="#fbbf24" stroke-width="5" opacity="0.55"/>
    <path d="M1000 225 C 1040 260, 1060 290, 1080 330" fill="none" stroke="#94a3b8" stroke-width="6" stroke-linecap="round"/>
    <rect x="1020" y="330" width="120" height="120" rx="22" fill="#0b1220" stroke="#334155" stroke-width="3"/>
    <path d="M1040 380 h80 v70 a14 14 0 0 1 -14 14 h-52 a14 14 0 0 1 -14 -14 z" fill="#0ea5e9" opacity="0.16"/>
  </g>
</svg>
