<?xml version="1.0" encoding="UTF-8"?>
<svg xmlns="http://www.w3.org/2000/svg" width="1200" height="520" viewBox="0 0 1200 520" role="img" aria-label="实验4：分子的运动">
  <defs>
    <linearGradient id="bg" x1="0" y1="0" x2="1" y2="1">
      <stop offset="0" stop-color="#1e293b"/>
      <stop offset="1" stop-color="#0f172a"/>
    </linearGradient>
    <linearGradient id="accent" x1="0" y1="0" x2="1" y2="1">
      <stop offset="0" stop-color="#60a5fa" stop-opacity="0.9"/>
      <stop offset="1" stop-color="#f39c12" stop-opacity="0.65"/>
    </linearGradient>
    <filter id="shadow" x="-20%" y="-20%" width="140%" height="140%">
      <feDropShadow dx="0" dy="10" stdDeviation="10" flood-color="#000000" flood-opacity="0.35"/>
    </filter>
  </defs>
  <rect x="16" y="16" width="1168" height="488" rx="30" fill="url(#bg)" stroke="#334155" stroke-width="2"/>
  <rect x="40" y="40" width="250" height="54" rx="16" fill="url(#accent)" opacity="0.18" stroke="#334155"/>
  <text x="62" y="76" fill="#f8fafc" font-family="system-ui, -apple-system, Segoe UI, Arial" font-size="20" font-weight="700">实验4：分子的运动</text>

  
  <path d="M120 135 C 240 55, 360 70, 460 150" fill="none" stroke="#334155" stroke-width="3" opacity="0.55"/>
  <path d="M720 150 C 830 70, 980 80, 1090 160" fill="none" stroke="#334155" stroke-width="3" opacity="0.55"/>

  <g filter="url(#shadow)">
    <rect x="240" y="180" width="260" height="240" rx="24" fill="#0b1220" stroke="#334155" stroke-width="3"/>
    <path d="M260 320 h220 v84 a18 18 0 0 1 -18 18 h-184 a18 18 0 0 1 -18 -18 z" fill="#60a5fa" opacity="0.16"/>
    <rect x="700" y="180" width="260" height="240" rx="24" fill="#0b1220" stroke="#334155" stroke-width="3"/>
    <path d="M720 320 h220 v84 a18 18 0 0 1 -18 18 h-184 a18 18 0 0 1 -18 -18 z" fill="#60a5fa" opacity="0.30"/>
  </g>
  <g filter="url(#shadow)">
    <path d="M520 250 C 580 250, 630 250, 680 250" fill="none" stroke="#94a3b8" stroke-width="6" stroke-linecap="round"/>
    <path d="M650 232 L 680 250 L 650 268" fill="none" stroke="#94a3b8" stroke-width="6" stroke-linecap="round" stroke-linejoin="round"/>
    <circle cx="560" cy="230" r="6" fill="#60a5fa" opacity="0.6"/>
    <circle cx="600" cy="270" r="5" fill="#60a5fa" opacity="0.5"/>
    <circle cx="620" cy="235" r="4" fill="#60a5fa" opacity="0.4"/>
  </g>
</svg>
