<?xml version="1.0" encoding="UTF-8"?>
<svg xmlns="http://www.w3.org/2000/svg" width="1200" height="520" viewBox="0 0 1200 520" role="img" aria-label="实验17：粗盐除难溶杂质">
  <defs>
    <linearGradient id="bg" x1="0" y1="0" x2="1" y2="1">
      <stop offset="0" stop-color="#1e293b"/>
      <stop offset="1" stop-color="#0f172a"/>
    </linearGradient>
    <linearGradient id="accent" x1="0" y1="0" x2="1" y2="1">
      <stop offset="0" stop-color="#a3e635" stop-opacity="0.9"/>
      <stop offset="1" stop-color="#f39c12" stop-opacity="0.65"/>
    </linearGradient>
    <filter id="shadow" x="-20%" y="-20%" width="140%" height="140%">
      <feDropShadow dx="0" dy="10" stdDeviation="10" flood-color="#000000" flood-opacity="0.35"/>
    </filter>
  </defs>
  <rect x="16" y="16" width="1168" height="488" rx="30" fill="url(#bg)" stroke="#334155" stroke-width="2"/>
  <rect x="40" y="40" width="250" height="54" rx="16" fill="url(#accent)" opacity="0.18" stroke="#334155"/>
  <text x="62" y="76" fill="#f8fafc" font-family="system-ui, -apple-system, Segoe UI, Arial" font-size="20" font-weight="700">实验17：粗盐除难溶杂质</text>

  
  <path d="M120 135 C 240 55, 360 70, 460 150" fill="none" stroke="#334155" stroke-width="3" opacity="0.55"/>
  <path d="M720 150 C 830 70, 980 80, 1090 160" fill="none" stroke="#334155" stroke-width="3" opacity="0.55"/>

  <g filter="url(#shadow)">
    <rect x="230" y="320" width="320" height="140" rx="22" fill="#0b1220" stroke="#334155" stroke-width="3"/>
    <path d="M250 380 h280 v70 a18 18 0 0 1 -18 18 h-244 a18 18 0 0 1 -18 -18 z" fill="#0ea5e9" opacity="0.18"/>
    <path d="M520 130 L 700 130 L 640 240 L 580 240 Z" fill="#0b1220" stroke="#94a3b8" stroke-width="3"/>
    <path d="M610 240 L 610 320" fill="none" stroke="#94a3b8" stroke-width="6" stroke-linecap="round"/>
    <path d="M595 130 L 640 130 L 622 210 Z" fill="#a3e635" opacity="0.25"/>
    <path d="M610 320 C 610 330, 600 340, 590 350" fill="none" stroke="#a3e635" stroke-width="5" opacity="0.5"/>
  </g>
</svg>
